# xmcd CD database file
# Copyright (C) 1993-1996 Ti Kan
#
# Track frame offsets:
#     150
#     20550
#     41625
#     47850
#     68925
#     75825
#     93525
#     100350
#     127200
#     131775
#     146700
#     173625
#     182550
#     183150
#     198225
#     201600
#     215625
#
# Disc length: 2946 seconds
#
# Revision: 0
# Processed by: cddbd v1.4b41PL1 Copyright (c) Steve Scherf et al.
# Submitted via: Clarion 0.9.2
#
DISCID=030b8011
DTITLE=Reverend Billy C. Wirtz - Backslider's Tractor Pull
DYEAR=1900
DGENRE=
TTITLE0=Intro - Devil With A Blue Plate On
TTITLE1=Sleeper Hold On Satan
TTITLE2=Erik the Red Sovine
TTITLE3=Waffle House Fire
TTITLE4=Phone Call From Cletus
TTITLE5=Just Friends
TTITLE6=Junior's Discount Frozen Embryo World
TTITLE7=Strange Butt Blues
TTITLE8=The Lesson
TTITLE9=Rev It Up, Parts 1 and 2
TTITLE10=Burnie the Toaster
TTITLE11=A Pinhead Will Survive
TTITLE12=Isn't That Awful!
TTITLE13=Honky Tonk Hermaphrodite
TTITLE14=Letter From A Lonely Mennonite
TTITLE15=Mennonite Surf Party
TTITLE16=Farewell From Chromosome, NC
EXTD=
EXTT0=
EXTT1=
EXTT2=
EXTT3=
EXTT4=
EXTT5=
EXTT6=
EXTT7=
EXTT8=
EXTT9=
EXTT10=
EXTT11=
EXTT12=
EXTT13=
EXTT14=
EXTT15=
EXTT16=
PLAYORDER=
